<svg width="31" height="31" fill="none" xmlns="http://www.w3.org/2000/svg"><g clip-path="url(#clip0)" fill="#43ABF0"><path d="M28.681 26.516H8.621a1.497 1.497 0 110-2.994h20.06a1.497 1.497 0 010 2.994zm0-9.396H8.621a1.497 1.497 0 110-2.995h20.06a1.497 1.497 0 010 2.994zm0-9.397H8.621a1.497 1.497 0 110-2.994h20.06a1.497 1.497 0 010 2.994zm-26.493.629a2.01 2.01 0 100-4.02 2.01 2.01 0 000 4.02zm0 9.281a2.01 2.01 0 100-4.021 2.01 2.01 0 000 4.02zm0 9.28a2.01 2.01 0 100-4.02 2.01 2.01 0 000 4.02z"/></g><defs><clipPath id="clip0"><path fill="#fff" transform="translate(.178 .622)" d="M0 0h30v30H0z"/></clipPath></defs></svg>